<svg width="64" height="64" viewBox="0 0 64 64" fill="none" xmlns="http://www.w3.org/2000/svg">
<path d="M58.8727 46.4788C58.8589 46.504 58.8479 46.5302 58.8318 46.5543C58.7951 46.6094 58.7531 46.6607 58.7064 46.7075L52.707 52.7069C52.5195 52.8944 52.2652 52.9998 52 52.9998C51.7348 52.9998 51.4805 52.8944 51.293 52.7069C51.1055 52.5194 51.0001 52.2651 51.0001 51.9999C51.0001 51.7347 51.1055 51.4804 51.293 51.2929L55.5857 46.9999H50.2339C47.5284 46.9971 44.8625 46.35 42.4569 45.112C40.0513 43.8741 37.9752 42.0809 36.4004 39.881L25.9722 25.2814C24.5827 23.3402 22.7508 21.7579 20.6282 20.6656C18.5056 19.5733 16.1533 19.0023 13.7661 18.9999H8C7.73478 18.9999 7.48043 18.8945 7.29289 18.707C7.10536 18.5195 7 18.2651 7 17.9999C7 17.7347 7.10536 17.4803 7.29289 17.2928C7.48043 17.1053 7.73478 16.9999 8 16.9999H13.7661C16.4716 17.0027 19.1375 17.6498 21.5431 18.8878C23.9487 20.1257 26.0248 21.9189 27.5996 24.1188L38.0278 38.7184C39.4173 40.6596 41.2492 42.2418 43.3718 43.3342C45.4944 44.4265 47.8467 44.9975 50.2339 44.9999H55.5857L51.293 40.7069C51.1055 40.5194 51.0001 40.2651 51.0001 39.9999C51.0001 39.7347 51.1055 39.4804 51.293 39.2929C51.4805 39.1053 51.7348 39 52 39C52.2652 39 52.5195 39.1053 52.707 39.2929L58.7064 45.2923C58.7531 45.3391 58.7951 45.3904 58.8318 45.4454C58.8479 45.4696 58.8589 45.4957 58.8727 45.5209C58.8914 45.5521 58.9084 45.5844 58.9236 45.6174C58.9359 45.6507 58.9463 45.6845 58.955 45.7188C58.9634 45.7473 58.9744 45.7746 58.9802 45.804C59.006 45.9333 59.006 46.0665 58.9802 46.1958C58.9744 46.2252 58.9634 46.2525 58.955 46.281C58.9463 46.3153 58.9358 46.3492 58.9236 46.3823C58.9084 46.4154 58.8914 46.4476 58.8727 46.4788ZM36.3345 25.9315C36.5503 26.0857 36.8185 26.1478 37.0801 26.1042C37.3417 26.0606 37.5753 25.9149 37.7295 25.6991L38.0278 25.2814C39.4173 23.3402 41.2492 21.758 43.3718 20.6656C45.4944 19.5733 47.8467 19.0023 50.2339 18.9999H55.5857L51.293 23.2929C51.2001 23.3857 51.1265 23.4959 51.0762 23.6172C51.026 23.7386 51.0001 23.8686 51.0001 23.9999C51.0001 24.1312 51.026 24.2612 51.0762 24.3825C51.1265 24.5038 51.2001 24.6141 51.293 24.7069C51.3858 24.7998 51.496 24.8734 51.6174 24.9237C51.7387 24.9739 51.8687 24.9998 52 24.9998C52.1313 24.9998 52.2613 24.9739 52.3826 24.9237C52.504 24.8734 52.6142 24.7998 52.707 24.7069L58.7064 18.7075C58.7531 18.6607 58.7951 18.6094 58.8318 18.5543C58.8479 18.5302 58.8589 18.504 58.8727 18.4788C58.8914 18.4476 58.9084 18.4154 58.9236 18.3823C58.9358 18.3491 58.9463 18.3153 58.955 18.281C58.9634 18.2525 58.9744 18.2252 58.9802 18.1958C59.006 18.0664 59.006 17.9333 58.9802 17.804C58.9744 17.7745 58.9634 17.7473 58.955 17.7188C58.9463 17.6845 58.9359 17.6506 58.9236 17.6174C58.9084 17.5844 58.8914 17.5521 58.8727 17.5209C58.8589 17.4957 58.8479 17.4696 58.8318 17.4454C58.7951 17.3904 58.7531 17.3391 58.7064 17.2922L52.707 11.2929C52.5195 11.1053 52.2652 11 52 11C51.7348 11 51.4805 11.1053 51.293 11.2929C51.1055 11.4804 51.0001 11.7347 51.0001 11.9999C51.0001 12.2651 51.1055 12.5194 51.293 12.7069L55.5857 16.9999H50.2339C47.5284 17.0027 44.8625 17.6498 42.4569 18.8878C40.0513 20.1257 37.9752 21.9189 36.4004 24.1188L36.102 24.5365C35.9479 24.7523 35.8858 25.0205 35.9294 25.2821C35.973 25.5438 36.1187 25.7773 36.3345 25.9315ZM27.6655 38.0683C27.5587 37.9918 27.4379 37.9372 27.3099 37.9075C27.1819 37.8779 27.0494 37.8737 26.9198 37.8953C26.7903 37.9169 26.6662 37.9638 26.5548 38.0333C26.4434 38.1029 26.3468 38.1937 26.2705 38.3007L25.9722 38.7184C24.5827 40.6596 22.7508 42.2418 20.6282 43.3341C18.5056 44.4265 16.1533 44.9975 13.7661 44.9999H8C7.73478 44.9999 7.48043 45.1052 7.29289 45.2928C7.10536 45.4803 7 45.7347 7 45.9999C7 46.2651 7.10536 46.5195 7.29289 46.707C7.48043 46.8945 7.73478 46.9999 8 46.9999H13.7661C16.4716 46.9971 19.1375 46.35 21.5431 45.112C23.9487 43.8741 26.0248 42.0809 27.5996 39.881L27.898 39.4633C28.0521 39.2474 28.1142 38.9792 28.0706 38.7176C28.027 38.456 27.8813 38.2224 27.6655 38.0683Z" fill="black" stroke="black" stroke-linecap="round" stroke-linejoin="round"/>
</svg>
