<svg width="64" height="64" viewBox="0 0 64 64" fill="none" xmlns="http://www.w3.org/2000/svg">
<path d="M52 17.5218V47.5121C52 48.0577 51.8201 48.5035 51.4591 48.8017C51.315 48.9508 51.0624 49 50.8825 49C50.7026 49 50.5585 48.9508 50.3774 48.8017L31.4933 33.8304C31.1323 33.483 30.9167 33.0373 30.9167 32.4916C30.9167 31.9951 31.1335 31.5493 31.4933 31.2019L50.3774 16.2306C51.0267 15.5866 51.9988 16.3797 51.9988 17.5203L52 17.5218Z" fill="black"/>
<path d="M33.666 17.5218V47.5121C33.666 48.0577 33.4783 48.5035 33.1016 48.8017C32.9512 48.9508 32.6877 49 32.5 49C32.3122 49 32.1618 48.9508 31.9729 48.8017L12.2677 33.8304C11.891 33.483 11.666 33.0373 11.666 32.4916C11.666 31.9951 11.8922 31.5493 12.2677 31.2019L31.9729 16.2306C32.6504 15.5866 33.6648 16.3797 33.6648 17.5203L33.666 17.5218Z" fill="black"/>
</svg>
