<svg width="64" height="64" viewBox="0 0 64 64" fill="none" xmlns="http://www.w3.org/2000/svg">
<path d="M12 17.5218V47.5121C12 48.0577 12.1799 48.5035 12.5409 48.8017C12.685 48.9508 12.9376 49 13.1175 49C13.2974 49 13.4415 48.9508 13.6226 48.8017L32.5067 33.8304C32.8677 33.483 33.0833 33.0373 33.0833 32.4916C33.0833 31.9951 32.8665 31.5493 32.5067 31.2019L13.6226 16.2306C12.9733 15.5866 12.0012 16.3797 12.0012 17.5203L12 17.5218Z" fill="black"/>
<path d="M30.333 17.5218V47.5121C30.333 48.0577 30.5207 48.5035 30.8974 48.8017C31.0478 48.9508 31.3113 49 31.4991 49C31.6868 49 31.8372 48.9508 32.0261 48.8017L51.7313 33.8304C52.108 33.483 52.333 33.0373 52.333 32.4916C52.333 31.9951 52.1068 31.5493 51.7313 31.2019L32.0261 16.2306C31.3487 15.5866 30.3342 16.3797 30.3342 17.5203L30.333 17.5218Z" fill="black"/>
</svg>
