<svg width="64" height="64" viewBox="0 0 64 64" fill="none" xmlns="http://www.w3.org/2000/svg">
<g clip-path="url(#clip0_515_323)">
<mask id="mask0_515_323" style="mask-type:luminance" maskUnits="userSpaceOnUse" x="8" y="12" width="26" height="41">
<path d="M33.5936 12H8V53H33.5936V12Z" fill="white"/>
</mask>
<g mask="url(#mask0_515_323)">
<path d="M10.8604 24.3285H19.1907L31.7225 12.9766V52.0242L19.1907 40.6722H10.8604V24.3285ZM36.431 22.4768C38.894 25.2141 40.1495 28.5419 40.1978 32.46C40.1978 36.2172 38.9422 39.4376 36.431 42.1214L33.8957 39.2229C35.6342 37.2907 36.5034 35.0096 36.5034 32.3796C36.5034 29.6959 35.6342 27.3611 33.8957 25.3751L36.431 22.4768ZM40.7773 17.7267C44.3993 21.7522 46.2102 26.6097 46.2102 32.2991C46.2102 37.9886 44.3993 42.8727 40.7773 46.952L38.0971 43.9731C40.9946 40.8064 42.4434 36.9285 42.4434 32.3393C42.4434 27.7503 40.9946 23.8455 38.0971 20.6251L40.7773 17.7267ZM44.7614 13.2986C46.9829 15.7676 48.7214 18.6391 49.977 21.9132C51.2326 25.1873 51.8604 28.6492 51.8604 32.2991C51.8604 35.9488 51.2326 39.4242 49.977 42.7252C48.7214 46.0261 46.9828 48.9111 44.7614 51.3801L42.1537 48.4817C46.1619 44.0268 48.1661 38.646 48.1661 32.3393C48.1661 26.0327 46.162 20.6519 42.1537 16.197L44.7614 13.2986Z" fill="#E6E6E6"/>
</g>
</g>
<path d="M44.6527 15C48.7169 19.5092 51 25.6241 51 32C51 38.3759 48.7169 44.4908 44.6527 49M37 23.488C39.0321 25.7426 40.1737 28.8 40.1737 31.988C40.1737 35.1759 39.0321 38.2334 37 40.488" stroke="#E6E6E6" stroke-width="4" stroke-linecap="round" stroke-linejoin="round"/>
<defs>
<clipPath id="clip0_515_323">
<rect width="25.5936" height="41" fill="white" transform="translate(8 12)"/>
</clipPath>
</defs>
</svg>
