<svg width="64" height="64" viewBox="0 0 64 64" fill="none" xmlns="http://www.w3.org/2000/svg">
<path d="M7 32.0008C7.00511 27.4937 8.79782 23.1726 11.9848 19.9856C15.1718 16.7986 19.4929 15.0059 24 15.0008H53.5857L49.293 10.7078C49.1059 10.5202 49.001 10.266 49.0012 10.0011C49.0014 9.73618 49.1067 9.48215 49.294 9.29482C49.4813 9.10748 49.7354 9.00215 50.0003 9.00195C50.2652 9.00176 50.5194 9.10671 50.707 9.29377L56.7066 15.2933C56.7532 15.34 56.7951 15.3913 56.8317 15.4462C56.8478 15.4705 56.8589 15.4966 56.8727 15.5219C56.8914 15.5531 56.9084 15.5853 56.9235 15.6183C56.9358 15.6514 56.9463 15.6852 56.9549 15.7194C56.9633 15.748 56.9744 15.7753 56.9803 15.805C57.006 15.9343 57.006 16.0673 56.9803 16.1966C56.9744 16.2263 56.9633 16.2536 56.9549 16.2822C56.9463 16.3164 56.9358 16.3501 56.9235 16.3832C56.9084 16.4163 56.8914 16.4485 56.8727 16.4797C56.8589 16.5049 56.8478 16.5311 56.8317 16.5554C56.7951 16.6103 56.7532 16.6615 56.7067 16.7083L50.707 22.7078C50.5194 22.8949 50.2652 22.9998 50.0003 22.9996C49.7354 22.9994 49.4813 22.8941 49.294 22.7068C49.1067 22.5194 49.0014 22.2654 49.0012 22.0005C49.001 21.7355 49.1059 21.4814 49.293 21.2938L53.5857 17.0008H24C20.0231 17.0053 16.2104 18.5871 13.3984 21.3992C10.5863 24.2112 9.00451 28.0239 9 32.0008C9 32.266 8.89464 32.5204 8.70711 32.7079C8.51957 32.8954 8.26522 33.0008 8 33.0008C7.73478 33.0008 7.48043 32.8954 7.29289 32.7079C7.10536 32.5204 7 32.266 7 32.0008ZM56 31.0008C55.7348 31.0008 55.4804 31.1062 55.2929 31.2937C55.1054 31.4812 55 31.7356 55 32.0008C54.9955 35.9777 53.4137 39.7904 50.6016 42.6024C47.7896 45.4145 43.9769 46.9963 40 47.0008H10.4143L14.707 42.7078C14.8941 42.5202 14.999 42.266 14.9988 42.0011C14.9987 41.7362 14.8933 41.4822 14.706 41.2948C14.5186 41.1075 14.2646 41.0021 13.9997 41.002C13.7348 41.0018 13.4806 41.1067 13.293 41.2938L7.29342 47.2933C7.24679 47.34 7.20488 47.3913 7.1683 47.4462C7.15205 47.4706 7.14093 47.497 7.12703 47.5223C7.10844 47.5534 7.09157 47.5854 7.07649 47.6183C7.06417 47.6516 7.05365 47.6854 7.04499 47.7198C7.03663 47.7482 7.0256 47.7755 7.01975 47.805C6.99402 47.9343 6.99402 48.0673 7.01975 48.1966C7.0256 48.2261 7.03663 48.2534 7.04499 48.2818C7.05365 48.3162 7.06417 48.35 7.07649 48.3832C7.09157 48.4162 7.10844 48.4482 7.12703 48.4793C7.14093 48.5046 7.15205 48.5309 7.1683 48.5554C7.20489 48.6103 7.24677 48.6615 7.29334 48.7083L13.293 54.7078C13.3858 54.8009 13.496 54.8748 13.6174 54.9252C13.7387 54.9756 13.8689 55.0016 14.0003 55.0017C14.1317 55.0018 14.2619 54.976 14.3833 54.9257C14.5048 54.8755 14.6151 54.8018 14.7081 54.7089C14.801 54.6159 14.8747 54.5056 14.925 54.3841C14.9752 54.2627 15.001 54.1325 15.0009 54.0011C15.0008 53.8697 14.9748 53.7395 14.9244 53.6182C14.874 53.4968 14.8001 53.3866 14.707 53.2938L10.4143 49.0008H40C44.5071 48.9957 48.8282 47.203 52.0152 44.016C55.2022 40.829 56.9949 36.5079 57 32.0008C57 31.7356 56.8946 31.4812 56.7071 31.2937C56.5196 31.1062 56.2652 31.0008 56 31.0008Z" fill="black" stroke="black" stroke-linecap="round" stroke-linejoin="round"/>
</svg>
